<?xml version="1.0" standalone="no"?>
<!DOCTYPE svg PUBLIC "-//W3C//DTD SVG 20010904//EN"
 "http://www.w3.org/TR/2001/REC-SVG-20010904/DTD/svg10.dtd">
<svg version="1.0" xmlns="http://www.w3.org/2000/svg"
 width="256.000000pt" height="256.000000pt" viewBox="0 0 256.000000 256.000000"
 preserveAspectRatio="xMidYMid meet">
<metadata>
Created by potrace 1.11, written by Peter Selinger 2001-2013
</metadata>
<g transform="translate(0.000000,256.000000) scale(0.100000,-0.100000)"
fill="#000000" stroke="none">
<path d="M250 2546 c-95 -27 -173 -97 -218 -195 -33 -72 -37 -191 -8 -266 52
-136 212 -314 456 -505 78 -61 91 -71 111 -88 14 -10 27 -2 90 54 41 37 115
100 164 142 193 161 302 288 340 397 39 112 13 262 -61 352 -70 85 -155 123
-266 119 -86 -3 -143 -27 -214 -89 l-46 -40 -21 26 c-24 29 -75 65 -121 85
-42 19 -154 23 -206 8z"/>
<path d="M1774 2300 c-143 -144 -261 -263 -264 -266 -4 -5 511 -524 521 -524
6 0 529 515 529 521 0 3 -119 123 -264 267 l-263 264 -259 -262z"/>
<path d="M589 1218 c-8 -7 -39 -33 -69 -58 -30 -25 -57 -48 -60 -51 -3 -3 -34
-30 -70 -59 -168 -138 -280 -254 -330 -344 -144 -254 22 -559 298 -548 38 1
43 -1 37 -16 -7 -17 -45 -135 -45 -139 0 -2 114 -3 254 -3 l255 0 -25 72 c-13
39 -24 74 -24 77 0 3 26 7 58 8 190 5 334 168 327 368 -3 69 -29 142 -81 222
-47 74 -233 259 -369 368 -60 49 -117 95 -126 102 -14 11 -19 12 -30 1z"/>
<path d="M1898 1200 c-145 -24 -266 -136 -303 -280 -9 -36 -19 -49 -49 -66
-86 -49 -164 -153 -182 -245 -43 -223 119 -438 340 -451 l43 -3 -14 -49 c-8
-27 -19 -60 -24 -73 -5 -14 -9 -26 -9 -29 0 -2 114 -4 254 -4 l255 0 -25 72
c-13 39 -24 74 -24 78 0 3 12 6 28 5 113 -3 245 73 316 181 61 94 71 245 23
346 -31 63 -105 143 -161 173 -23 13 -39 29 -42 45 -42 198 -231 332 -426 300z"/>
</g>
</svg>
